<?xml version="1.0" encoding="UTF-8" standalone="no"?>
<!DOCTYPE svg PUBLIC "-//W3C//DTD SVG 1.0//EN"
 "http://www.w3.org/TR/2001/REC-SVG-20010904/DTD/svg10.dtd" [
 <!ATTLIST svg xmlns:xlink CDATA #FIXED "http://www.w3.org/1999/xlink">
]>
<!-- Generated by Graphviz version 2.16 (Fri Feb  8 12:52:03 UTC 2008)
     For user: (arafatm) arafatm,,, -->
<!-- Title: controllers_diagram Pages: 1 -->
<svg width="851pt" height="683pt"
 viewBox="0.00 0.00 851.00 683.00" xmlns="http://www.w3.org/2000/svg" xmlns:xlink="http://www.w3.org/1999/xlink">
<g id="graph0" class="graph" transform="scale(1 1) rotate(0) translate(4 679)">
<title>controllers_diagram</title>
<polygon style="fill:white;stroke:white;" points="-4,4 -4,-679 847,-679 847,4 -4,4"/>
<!-- _diagram_info -->
<g id="node1" class="node"><title>_diagram_info</title>
<text text-anchor="start" x="569.625" y="-162.9" style="font-family:Times New Roman;font-size:11.00;">Controllers diagram</text>
<text text-anchor="start" x="569.625" y="-145.65" style="font-family:Times New Roman;font-size:11.00;">Date: Nov 06 2008 &#45; 20:49</text>
<text text-anchor="start" x="569.625" y="-128.4" style="font-family:Times New Roman;font-size:11.00;">Migration version: 20081107005935</text>
<text text-anchor="start" x="569.625" y="-111.15" style="font-family:Times New Roman;font-size:11.00;">Generated by RailRoad 0.5.0</text>
</g>
<!-- SessionsController -->
<g id="node2" class="node"><title>SessionsController</title>
<polyline style="fill:none;stroke:black;" points="13,-256 140,-256 "/>
<path style="fill:none;stroke:black;" d="M140,-256C146,-256 152,-262 152,-268"/>
<polyline style="fill:none;stroke:black;" points="152,-268 152,-378 "/>
<path style="fill:none;stroke:black;" d="M152,-378C152,-384 146,-390 140,-390"/>
<polyline style="fill:none;stroke:black;" points="140,-390 13,-390 "/>
<path style="fill:none;stroke:black;" d="M13,-390C7,-390 1,-384 1,-378"/>
<polyline style="fill:none;stroke:black;" points="1,-378 1,-268 "/>
<path style="fill:none;stroke:black;" d="M1,-268C1,-262 7,-256 13,-256"/>
<text text-anchor="middle" x="76" y="-373.025" style="font-family:Times New Roman;font-size:11.00;">SessionsController</text>
<polyline style="fill:none;stroke:black;" points="1,-365 152,-365 "/>
<text text-anchor="start" x="8.5" y="-348.275" style="font-family:Times New Roman;font-size:11.00;">create</text>
<text text-anchor="start" x="8.5" y="-331.025" style="font-family:Times New Roman;font-size:11.00;">destroy</text>
<text text-anchor="start" x="8.5" y="-313.775" style="font-family:Times New Roman;font-size:11.00;">new</text>
<polyline style="fill:none;stroke:black;" points="1,-305 152,-305 "/>
<text text-anchor="start" x="8.625" y="-288.025" style="font-family:Times New Roman;font-size:11.00;">note_failed_signin</text>
<polyline style="fill:none;stroke:black;" points="1,-280 152,-280 "/>
</g>
<!-- UsersController -->
<g id="node3" class="node"><title>UsersController</title>
<polyline style="fill:none;stroke:black;" points="456,-451 563,-451 "/>
<path style="fill:none;stroke:black;" d="M563,-451C569,-451 575,-457 575,-463"/>
<polyline style="fill:none;stroke:black;" points="575,-463 575,-555 "/>
<path style="fill:none;stroke:black;" d="M575,-555C575,-561 569,-567 563,-567"/>
<polyline style="fill:none;stroke:black;" points="563,-567 456,-567 "/>
<path style="fill:none;stroke:black;" d="M456,-567C450,-567 444,-561 444,-555"/>
<polyline style="fill:none;stroke:black;" points="444,-555 444,-463 "/>
<path style="fill:none;stroke:black;" d="M444,-463C444,-457 450,-451 456,-451"/>
<text text-anchor="middle" x="509" y="-550.025" style="font-family:Times New Roman;font-size:11.00;">UsersController</text>
<polyline style="fill:none;stroke:black;" points="444,-542 575,-542 "/>
<text text-anchor="start" x="451.625" y="-524.65" style="font-family:Times New Roman;font-size:11.00;">create</text>
<text text-anchor="start" x="451.625" y="-507.4" style="font-family:Times New Roman;font-size:11.00;">new</text>
<polyline style="fill:none;stroke:black;" points="444,-499 575,-499 "/>
<polyline style="fill:none;stroke:black;" points="444,-475 575,-475 "/>
</g>
<!-- AccountsController -->
<g id="node4" class="node"><title>AccountsController</title>
<polyline style="fill:none;stroke:black;" points="214,-0 540,-0 "/>
<path style="fill:none;stroke:black;" d="M540,-0C546,-0 552,-6 552,-12"/>
<polyline style="fill:none;stroke:black;" points="552,-12 552,-349 "/>
<path style="fill:none;stroke:black;" d="M552,-349C552,-355 546,-361 540,-361"/>
<polyline style="fill:none;stroke:black;" points="540,-361 214,-361 "/>
<path style="fill:none;stroke:black;" d="M214,-361C208,-361 202,-355 202,-349"/>
<polyline style="fill:none;stroke:black;" points="202,-349 202,-12 "/>
<path style="fill:none;stroke:black;" d="M202,-12C202,-6 208,-0 214,-0"/>
<text text-anchor="middle" x="377" y="-344.025" style="font-family:Times New Roman;font-size:11.00;">AccountsController</text>
<polyline style="fill:none;stroke:black;" points="202,-336 552,-336 "/>
<text text-anchor="start" x="210.125" y="-318.65" style="font-family:Times New Roman;font-size:11.00;">active</text>
<text text-anchor="start" x="210.125" y="-301.4" style="font-family:Times New Roman;font-size:11.00;">admin_required_params</text>
<text text-anchor="start" x="210.125" y="-284.15" style="font-family:Times New Roman;font-size:11.00;">create</text>
<text text-anchor="start" x="210.125" y="-266.9" style="font-family:Times New Roman;font-size:11.00;">inactive</text>
<text text-anchor="start" x="210.125" y="-249.65" style="font-family:Times New Roman;font-size:11.00;">index</text>
<text text-anchor="start" x="210.125" y="-232.4" style="font-family:Times New Roman;font-size:11.00;">respond_to?</text>
<text text-anchor="start" x="210.125" y="-215.15" style="font-family:Times New Roman;font-size:11.00;">respond_to_without_named_route_helper?</text>
<text text-anchor="start" x="210.125" y="-197.9" style="font-family:Times New Roman;font-size:11.00;">route_name</text>
<text text-anchor="start" x="210.125" y="-180.65" style="font-family:Times New Roman;font-size:11.00;">specifications</text>
<text text-anchor="start" x="210.125" y="-163.4" style="font-family:Times New Roman;font-size:11.00;">update</text>
<polyline style="fill:none;stroke:black;" points="202,-155 552,-155 "/>
<text text-anchor="start" x="210" y="-138.15" style="font-family:Times New Roman;font-size:11.00;">find_resource</text>
<text text-anchor="start" x="210" y="-120.9" style="font-family:Times New Roman;font-size:11.00;">find_resources</text>
<text text-anchor="start" x="210" y="-103.65" style="font-family:Times New Roman;font-size:11.00;">find_resources_and_set_links</text>
<text text-anchor="start" x="210" y="-86.4" style="font-family:Times New Roman;font-size:11.00;">new_resource</text>
<text text-anchor="start" x="210" y="-69.15" style="font-family:Times New Roman;font-size:11.00;">url_for_active_accounts</text>
<text text-anchor="start" x="210" y="-51.9" style="font-family:Times New Roman;font-size:11.00;">url_for_inactive_accounts</text>
<polyline style="fill:none;stroke:black;" points="202,-43 552,-43 "/>
<text text-anchor="start" x="210.125" y="-25.65" style="font-family:Times New Roman;font-size:11.00;">method_missing</text>
<text text-anchor="start" x="210.125" y="-8.4" style="font-family:Times New Roman;font-size:11.00;">method_missing_without_named_route_helper</text>
</g>
<!-- ApplicationController -->
<g id="node5" class="node"><title>ApplicationController</title>
<polyline style="fill:none;stroke:black;" points="126,-575 273,-575 "/>
<path style="fill:none;stroke:black;" d="M273,-575C279,-575 285,-581 285,-587"/>
<polyline style="fill:none;stroke:black;" points="285,-587 285,-662 "/>
<path style="fill:none;stroke:black;" d="M285,-662C285,-668 279,-674 273,-674"/>
<polyline style="fill:none;stroke:black;" points="273,-674 126,-674 "/>
<path style="fill:none;stroke:black;" d="M126,-674C120,-674 114,-668 114,-662"/>
<polyline style="fill:none;stroke:black;" points="114,-662 114,-587 "/>
<path style="fill:none;stroke:black;" d="M114,-587C114,-581 120,-575 126,-575"/>
<text text-anchor="middle" x="199" y="-657.025" style="font-family:Times New Roman;font-size:11.00;">ApplicationController</text>
<polyline style="fill:none;stroke:black;" points="114,-649 285,-649 "/>
<text text-anchor="start" x="121.375" y="-632.025" style="font-family:Times New Roman;font-size:11.00;">admin_required</text>
<polyline style="fill:none;stroke:black;" points="114,-624 285,-624 "/>
<text text-anchor="start" x="121.75" y="-607.025" style="font-family:Times New Roman;font-size:11.00;">filter_parameters</text>
<polyline style="fill:none;stroke:black;" points="114,-599 285,-599 "/>
</g>
<!-- ApplicationController&#45;&gt;SessionsController -->
<g id="edge2" class="edge"><title>ApplicationController&#45;&gt;SessionsController</title>
<path style="fill:none;stroke:black;" d="M175,-565C154,-515 125,-443 103,-390"/>
<polygon style="fill:none;stroke:black;" points="172.036,-567.015 179,-575 178.536,-564.415 172.036,-567.015"/>
</g>
<!-- ApplicationController&#45;&gt;UsersController -->
<g id="edge4" class="edge"><title>ApplicationController&#45;&gt;UsersController</title>
<path style="fill:none;stroke:black;" d="M295,-589C343,-571 401,-550 444,-533"/>
<polygon style="fill:none;stroke:black;" points="292.985,-586.036 285,-593 295.585,-592.536 292.985,-586.036"/>
</g>
<!-- ApplicationController&#45;&gt;AccountsController -->
<g id="edge6" class="edge"><title>ApplicationController&#45;&gt;AccountsController</title>
<path style="fill:none;stroke:black;" d="M223,-566C244,-513 276,-434 305,-361"/>
<polygon style="fill:none;stroke:black;" points="219.863,-564.44 219,-575 226.26,-567.283 219.863,-564.44"/>
</g>
</g>
</svg>
