<?xml version="1.0" encoding="UTF-8" standalone="no"?>
<!DOCTYPE svg PUBLIC "-//W3C//DTD SVG 1.0//EN"
 "http://www.w3.org/TR/2001/REC-SVG-20010904/DTD/svg10.dtd" [
 <!ATTLIST svg xmlns:xlink CDATA #FIXED "http://www.w3.org/1999/xlink">
]>
<!-- Generated by Graphviz version 2.16 (Fri Feb  8 12:52:03 UTC 2008)
     For user: (arafatm) arafatm,,, -->
<!-- Title: models_diagram Pages: 1 -->
<svg width="734pt" height="492pt"
 viewBox="0.00 0.00 734.00 492.00" xmlns="http://www.w3.org/2000/svg" xmlns:xlink="http://www.w3.org/1999/xlink">
<g id="graph0" class="graph" transform="scale(1 1) rotate(0) translate(4 488)">
<title>models_diagram</title>
<polygon style="fill:white;stroke:white;" points="-4,4 -4,-488 730,-488 730,4 -4,4"/>
<!-- _diagram_info -->
<g id="node1" class="node"><title>_diagram_info</title>
<text text-anchor="start" x="7.625" y="-402.9" style="font-family:Times New Roman;font-size:11.00;">Models diagram</text>
<text text-anchor="start" x="7.625" y="-385.65" style="font-family:Times New Roman;font-size:11.00;">Date: Nov 06 2008 &#45; 20:49</text>
<text text-anchor="start" x="7.625" y="-368.4" style="font-family:Times New Roman;font-size:11.00;">Migration version: 20081107005935</text>
<text text-anchor="start" x="7.625" y="-351.15" style="font-family:Times New Roman;font-size:11.00;">Generated by RailRoad 0.5.0</text>
</g>
<!-- User -->
<g id="node2" class="node"><title>User</title>
<polyline style="fill:none;stroke:black;" points="310,-278 579,-278 "/>
<path style="fill:none;stroke:black;" d="M579,-278C585,-278 591,-284 591,-290"/>
<polyline style="fill:none;stroke:black;" points="591,-290 591,-472 "/>
<path style="fill:none;stroke:black;" d="M591,-472C591,-478 585,-484 579,-484"/>
<polyline style="fill:none;stroke:black;" points="579,-484 310,-484 "/>
<path style="fill:none;stroke:black;" d="M310,-484C304,-484 298,-478 298,-472"/>
<polyline style="fill:none;stroke:black;" points="298,-472 298,-290 "/>
<path style="fill:none;stroke:black;" d="M298,-290C298,-284 304,-278 310,-278"/>
<text text-anchor="middle" x="444" y="-467.025" style="font-family:Times New Roman;font-size:11.00;">User</text>
<polyline style="fill:none;stroke:black;" points="298,-459 591,-459 "/>
<text text-anchor="start" x="305.625" y="-441.65" style="font-family:Times New Roman;font-size:11.00;">login :string</text>
<text text-anchor="start" x="305.625" y="-424.4" style="font-family:Times New Roman;font-size:11.00;">name :string</text>
<text text-anchor="start" x="305.625" y="-407.15" style="font-family:Times New Roman;font-size:11.00;">email :string</text>
<text text-anchor="start" x="305.625" y="-389.9" style="font-family:Times New Roman;font-size:11.00;">crypted_password :string</text>
<text text-anchor="start" x="305.625" y="-372.65" style="font-family:Times New Roman;font-size:11.00;">salt :string</text>
<text text-anchor="start" x="305.625" y="-355.4" style="font-family:Times New Roman;font-size:11.00;">created_at :datetime</text>
<text text-anchor="start" x="305.625" y="-338.15" style="font-family:Times New Roman;font-size:11.00;">updated_at :datetime</text>
<text text-anchor="start" x="305.625" y="-320.9" style="font-family:Times New Roman;font-size:11.00;">remember_token :string</text>
<text text-anchor="start" x="305.625" y="-303.65" style="font-family:Times New Roman;font-size:11.00;">remember_token_expires_at :datetime</text>
<text text-anchor="start" x="305.625" y="-286.4" style="font-family:Times New Roman;font-size:11.00;">admin :boolean</text>
</g>
<!-- Transaction -->
<g id="node5" class="node"><title>Transaction</title>
<polyline style="fill:none;stroke:black;" points="372,-131 517,-131 "/>
<path style="fill:none;stroke:black;" d="M517,-131C523,-131 529,-137 529,-143"/>
<polyline style="fill:none;stroke:black;" points="529,-143 529,-221 "/>
<path style="fill:none;stroke:black;" d="M529,-221C529,-227 523,-233 517,-233"/>
<polyline style="fill:none;stroke:black;" points="517,-233 372,-233 "/>
<path style="fill:none;stroke:black;" d="M372,-233C366,-233 360,-227 360,-221"/>
<polyline style="fill:none;stroke:black;" points="360,-221 360,-143 "/>
<path style="fill:none;stroke:black;" d="M360,-143C360,-137 366,-131 372,-131"/>
<text text-anchor="middle" x="444" y="-216.025" style="font-family:Times New Roman;font-size:11.00;">Transaction</text>
<polyline style="fill:none;stroke:black;" points="360,-208 529,-208 "/>
<text text-anchor="start" x="367.5" y="-190.9" style="font-family:Times New Roman;font-size:11.00;">memo :string</text>
<text text-anchor="start" x="367.5" y="-173.65" style="font-family:Times New Roman;font-size:11.00;">paid_at :datetime</text>
<text text-anchor="start" x="367.5" y="-156.4" style="font-family:Times New Roman;font-size:11.00;">created_at :datetime</text>
<text text-anchor="start" x="367.5" y="-139.15" style="font-family:Times New Roman;font-size:11.00;">updated_at :datetime</text>
</g>
<!-- User&#45;&gt;Transaction -->
<g id="edge2" class="edge"><title>User&#45;&gt;Transaction</title>
<path style="fill:none;stroke:black;" d="M444,-268C444,-258 444,-249 444,-241"/>
<polygon style="fill:black;stroke:black;" points="444,-268 439.5,-278 444,-271 444,-278 444,-271 448.5,-278 444,-268 444,-268"/>
<ellipse style="fill:black;stroke:black;" cx="444" cy="-237" rx="4" ry="4"/>
</g>
<!-- Entry -->
<g id="node3" class="node"><title>Entry</title>
<polyline style="fill:none;stroke:black;" points="468,-0 613,-0 "/>
<path style="fill:none;stroke:black;" d="M613,-0C619,-0 625,-6 625,-12"/>
<polyline style="fill:none;stroke:black;" points="625,-12 625,-73 "/>
<path style="fill:none;stroke:black;" d="M625,-73C625,-79 619,-85 613,-85"/>
<polyline style="fill:none;stroke:black;" points="613,-85 468,-85 "/>
<path style="fill:none;stroke:black;" d="M468,-85C462,-85 456,-79 456,-73"/>
<polyline style="fill:none;stroke:black;" points="456,-73 456,-12 "/>
<path style="fill:none;stroke:black;" d="M456,-12C456,-6 462,-0 468,-0"/>
<text text-anchor="middle" x="540" y="-68.025" style="font-family:Times New Roman;font-size:11.00;">Entry</text>
<polyline style="fill:none;stroke:black;" points="456,-60 625,-60 "/>
<text text-anchor="start" x="463.5" y="-43.275" style="font-family:Times New Roman;font-size:11.00;">amount :decimal</text>
<text text-anchor="start" x="463.5" y="-26.025" style="font-family:Times New Roman;font-size:11.00;">created_at :datetime</text>
<text text-anchor="start" x="463.5" y="-8.775" style="font-family:Times New Roman;font-size:11.00;">updated_at :datetime</text>
</g>
<!-- Account -->
<g id="node4" class="node"><title>Account</title>
<polyline style="fill:none;stroke:black;" points="558,-122 714,-122 "/>
<path style="fill:none;stroke:black;" d="M714,-122C720,-122 726,-128 726,-134"/>
<polyline style="fill:none;stroke:black;" points="726,-134 726,-229 "/>
<path style="fill:none;stroke:black;" d="M726,-229C726,-235 720,-241 714,-241"/>
<polyline style="fill:none;stroke:black;" points="714,-241 558,-241 "/>
<path style="fill:none;stroke:black;" d="M558,-241C552,-241 546,-235 546,-229"/>
<polyline style="fill:none;stroke:black;" points="546,-229 546,-134 "/>
<path style="fill:none;stroke:black;" d="M546,-134C546,-128 552,-122 558,-122"/>
<text text-anchor="middle" x="636" y="-224.025" style="font-family:Times New Roman;font-size:11.00;">Account</text>
<polyline style="fill:none;stroke:black;" points="546,-216 726,-216 "/>
<text text-anchor="start" x="554.25" y="-199.525" style="font-family:Times New Roman;font-size:11.00;">name :string</text>
<text text-anchor="start" x="554.25" y="-182.275" style="font-family:Times New Roman;font-size:11.00;">created_at :datetime</text>
<text text-anchor="start" x="554.25" y="-165.025" style="font-family:Times New Roman;font-size:11.00;">updated_at :datetime</text>
<text text-anchor="start" x="554.25" y="-147.775" style="font-family:Times New Roman;font-size:11.00;">initialBalance :decimal</text>
<text text-anchor="start" x="554.25" y="-130.525" style="font-family:Times New Roman;font-size:11.00;">active :boolean</text>
</g>
<!-- Account&#45;&gt;Entry -->
<g id="edge4" class="edge"><title>Account&#45;&gt;Entry</title>
<path style="fill:none;stroke:black;" d="M588,-113C584,-106 578,-99 574,-92"/>
<polygon style="fill:black;stroke:black;" points="588.453,-113.679 590.256,-124.496 590.117,-116.176 594,-122 590.117,-116.176 597.744,-119.504 588.453,-113.679 588.453,-113.679"/>
<ellipse style="fill:black;stroke:black;" cx="571.325" cy="-88.2549" rx="4.00002" ry="4.00002"/>
</g>
<!-- Transaction&#45;&gt;Entry -->
<g id="edge6" class="edge"><title>Transaction&#45;&gt;Entry</title>
<path style="fill:none;stroke:black;" d="M485,-123C492,-112 500,-102 506,-92"/>
<polygon style="fill:black;stroke:black;" points="485,-123 475.4,-128.3 483.2,-125.4 479,-131 483.2,-125.4 482.6,-133.7 485,-123 485,-123"/>
<ellipse style="fill:black;stroke:black;" cx="508.675" cy="-88.2549" rx="4.00002" ry="4.00002"/>
</g>
</g>
</svg>
